<svg width="36" height="36" viewBox="0 0 36 36" fill="none" xmlns="http://www.w3.org/2000/svg">
<circle cx="18" cy="18" r="18" transform="rotate(-180 18 18)" fill="#FCCA7C"/>
<path d="M12.3818 18.8279L20.7413 26.7929C20.8808 26.9258 21.0661 27 21.2588 27C21.4515 27 21.6368 26.9258 21.7763 26.7929L21.7853 26.7839C21.8532 26.7194 21.9072 26.6418 21.9441 26.5558C21.981 26.4698 22.0001 26.3772 22.0001 26.2836C22.0001 26.19 21.981 26.0974 21.9441 26.0114C21.9072 25.9254 21.8532 25.8478 21.7853 25.7834L13.9133 18.2834L21.7853 10.7864C21.8532 10.7219 21.9072 10.6443 21.9441 10.5583C21.981 10.4723 22.0001 10.3797 22.0001 10.2861C22.0001 10.1925 21.981 10.0999 21.9441 10.0139C21.9072 9.92791 21.8532 9.85032 21.7853 9.78586L21.7763 9.77686C21.6368 9.64389 21.4515 9.56971 21.2588 9.56971C21.0661 9.56971 20.8808 9.64389 20.7413 9.77686L12.3818 17.7419C12.3083 17.8119 12.2498 17.8961 12.2098 17.9895C12.1698 18.0828 12.1492 18.1833 12.1492 18.2849C12.1492 18.3864 12.1698 18.4869 12.2098 18.5802C12.2498 18.6736 12.3083 18.7578 12.3818 18.8279Z" fill="black"/>
</svg>
