<svg width="50" height="50" viewBox="0 0 50 50" fill="none" xmlns="http://www.w3.org/2000/svg">
<circle cx="25" cy="25" r="25" transform="rotate(-180 25 25)" fill="#F2CFA9"/>
<path d="M17.1969 26.1498L28.8073 37.2123C29.001 37.397 29.2584 37.5 29.5261 37.5C29.7937 37.5 30.0511 37.397 30.2448 37.2123L30.2573 37.1998C30.3516 37.1103 30.4266 37.0025 30.4779 36.8831C30.5292 36.7636 30.5556 36.635 30.5556 36.505C30.5556 36.375 30.5292 36.2464 30.4779 36.127C30.4266 36.0075 30.3516 35.8997 30.2573 35.8102L19.324 25.3936L30.2573 14.9811C30.3516 14.8915 30.4266 14.7838 30.4779 14.6643C30.5292 14.5449 30.5556 14.4162 30.5556 14.2863C30.5556 14.1563 30.5292 14.0277 30.4779 13.9082C30.4266 13.7888 30.3516 13.681 30.2573 13.5915L30.2448 13.579C30.0511 13.3943 29.7937 13.2913 29.5261 13.2913C29.2584 13.2913 29.001 13.3943 28.8073 13.579L17.1969 24.6415C17.0948 24.7388 17.0135 24.8558 16.958 24.9854C16.9024 25.115 16.8738 25.2546 16.8738 25.3956C16.8738 25.5367 16.9024 25.6762 16.958 25.8059C17.0135 25.9355 17.0948 26.0525 17.1969 26.1498Z" fill="black"/>
</svg>
