<svg width="25" height="24" viewBox="0 0 25 24" fill="none" xmlns="http://www.w3.org/2000/svg">
<path d="M12.5 2.3999C15.0461 2.3999 17.4879 3.41133 19.2882 5.21168C21.0886 7.01203 22.1 9.45382 22.1 11.9999C22.1 14.546 21.0886 16.9878 19.2882 18.7881C17.4879 20.5885 15.0461 21.5999 12.5 21.5999C9.95392 21.5999 7.51212 20.5885 5.71177 18.7881C3.91142 16.9878 2.89999 14.546 2.89999 11.9999C2.89999 9.45382 3.91142 7.01203 5.71177 5.21168C7.51212 3.41133 9.95392 2.3999 12.5 2.3999ZM12.5 3.5999C11.3969 3.5999 10.3046 3.81717 9.28545 4.23931C8.26632 4.66145 7.34031 5.28019 6.5603 6.06021C5.78028 6.84022 5.16155 7.76623 4.73941 8.78536C4.31727 9.8045 4.09999 10.8968 4.09999 11.9999C4.09999 13.103 4.31727 14.1953 4.73941 15.2144C5.16155 16.2336 5.78028 17.1596 6.5603 17.9396C7.34031 18.7196 8.26632 19.3384 9.28545 19.7605C10.3046 20.1826 11.3969 20.3999 12.5 20.3999C14.7278 20.3999 16.8644 19.5149 18.4397 17.9396C20.015 16.3643 20.9 14.2277 20.9 11.9999C20.9 9.77208 20.015 7.63551 18.4397 6.06021C16.8644 4.4849 14.7278 3.5999 12.5 3.5999ZM16.5296 9.1751C16.629 9.27438 16.6904 9.40539 16.7031 9.54529C16.7158 9.6852 16.6791 9.82513 16.5992 9.9407L16.5296 10.0247L11.7248 14.8295C11.6255 14.9289 11.4945 14.9903 11.3546 15.003C11.2147 15.0157 11.0748 14.979 10.9592 14.8991L10.8752 14.8295L8.47519 12.4295C8.36889 12.3237 8.30609 12.1819 8.29915 12.032C8.29222 11.8822 8.34165 11.7352 8.43772 11.62C8.53379 11.5048 8.66953 11.4298 8.81817 11.4097C8.96682 11.3896 9.1176 11.4259 9.24079 11.5115L9.32479 11.5811L11.3 13.5575L15.6812 9.1751C15.7937 9.06262 15.9463 8.99943 16.1054 8.99943C16.2645 8.99943 16.4171 9.06262 16.5296 9.1751Z" fill="#F2CFA9"/>
</svg>
