<svg width="17" height="12" viewBox="0 0 17 12" fill="none" xmlns="http://www.w3.org/2000/svg">
<g clip-path="url(#clip0_82_221)">
<path d="M4.13718 11.9411V5.79124L2.22034 4.04639L0.501465 3.07812V10.8558C0.501465 11.4563 0.990438 11.9411 1.5922 11.9411H4.13718Z" fill="#4285F4"/>
<path d="M12.8628 11.941H15.4078C16.0113 11.941 16.4985 11.4544 16.4985 10.8557V3.07812L14.5516 4.18716L12.8628 5.79118V11.941Z" fill="#34A853"/>
<path d="M4.13717 5.79065L3.87634 3.38772L4.13717 1.08789L8.5 4.34368L12.8628 1.08789L13.1546 3.26356L12.8628 5.79065L8.5 9.04644L4.13717 5.79065Z" fill="#EA4335"/>
<path d="M12.8628 1.08831V5.79107L16.4985 3.07795V1.63092C16.4985 0.288851 14.9588 -0.476226 13.8809 0.328644L12.8628 1.08831Z" fill="#FBBC04"/>
<path d="M0.501831 3.07798L2.17396 4.32585L4.13754 5.7911V1.08834L3.11948 0.328672C2.03968 -0.47626 0.501831 0.28888 0.501831 1.63089V3.07792V3.07798Z" fill="#C5221F"/>
</g>
<defs>
<clipPath id="clip0_82_221">
<rect width="16" height="12" fill="white" transform="translate(0.5)"/>
</clipPath>
</defs>
</svg>
