<svg width="58" height="58" viewBox="0 0 58 58" fill="none" xmlns="http://www.w3.org/2000/svg">
<path d="M12.0463 31.9838C12.1305 31.8996 12.2304 31.8327 12.3405 31.7871C12.4505 31.7415 12.5684 31.7181 12.6875 31.7181C12.8066 31.7181 12.9245 31.7415 13.0345 31.7871C13.1446 31.8327 13.2445 31.8996 13.3287 31.9838L28.0937 46.7489L28.0937 9.06253C28.0937 8.82217 28.1892 8.59166 28.3592 8.42171C28.5291 8.25175 28.7596 8.15628 29 8.15628C29.2404 8.15628 29.4709 8.25175 29.6408 8.42171C29.8108 8.59166 29.9062 8.82217 29.9062 9.06253L29.9062 46.7489L44.6713 31.9839C44.7555 31.8997 44.8555 31.8329 44.9655 31.7873C45.0755 31.7417 45.1934 31.7183 45.3125 31.7183C45.4316 31.7183 45.5495 31.7417 45.6595 31.7873C45.7695 31.8329 45.8695 31.8997 45.9537 31.9839C46.0379 32.0681 46.1047 32.168 46.1502 32.278C46.1958 32.388 46.2193 32.5059 46.2193 32.625C46.2193 32.7441 46.1958 32.862 46.1502 32.972C46.1047 33.082 46.0379 33.182 45.9537 33.2662L29.6412 49.5787C29.557 49.663 29.4571 49.7298 29.347 49.7754C29.237 49.821 29.1191 49.8445 29 49.8445C28.8809 49.8445 28.763 49.821 28.653 49.7754C28.5429 49.7298 28.443 49.663 28.3588 49.5787L12.0463 33.2662C11.9621 33.182 11.8952 33.0821 11.8496 32.9721C11.804 32.862 11.7805 32.7441 11.7805 32.625C11.7805 32.5059 11.804 32.388 11.8496 32.278C11.8952 32.168 11.9621 32.068 12.0463 31.9838Z" fill="white"/>
</svg>
