<svg width="23" height="23" viewBox="0 0 23 23" fill="none" xmlns="http://www.w3.org/2000/svg">
<g clip-path="url(#clip0_35_104)">
<path d="M18.4396 12.194C18.4396 12.2729 18.4083 12.3485 18.3526 12.4044C18.2967 12.4601 18.2211 12.4914 18.1422 12.4914H5.05602C4.97714 12.4914 4.90149 12.4601 4.84572 12.4044C4.78994 12.3485 4.75861 12.2729 4.75861 12.194C4.75861 12.1151 4.78994 12.0395 4.84572 11.9837C4.90149 11.9279 4.97714 11.8966 5.05602 11.8966H18.1422C18.2211 11.8966 18.2967 11.9279 18.3526 11.9837C18.4083 12.0395 18.4396 12.1151 18.4396 12.194Z" fill="black"/>
<path d="M11.5 22C17.299 22 22 17.299 22 11.5C22 5.70101 17.299 1 11.5 1C5.70101 1 1 5.70101 1 11.5C1 17.299 5.70101 22 11.5 22Z" stroke="black" stroke-width="0.7"/>
</g>
<defs>
<clipPath id="clip0_35_104">
<rect width="23" height="23" fill="white"/>
</clipPath>
</defs>
</svg>
