<svg width="23" height="24" viewBox="0 0 23 24" fill="none" xmlns="http://www.w3.org/2000/svg">
<g clip-path="url(#clip0_0_169)">
<path d="M11.5 23.2224C17.698 23.2224 22.7224 18.198 22.7224 12C22.7224 5.80203 17.698 0.777586 11.5 0.777586C5.30203 0.777586 0.277588 5.80203 0.277588 12C0.277588 18.198 5.30203 23.2224 11.5 23.2224Z" stroke="black" stroke-width="0.7"/>
<path d="M18.4397 12.0991C18.4397 12.1781 18.4083 12.2536 18.3526 12.3095C18.2967 12.3652 18.2212 12.3966 18.1422 12.3966H11.8966V18.6422C11.8966 18.7212 11.8652 18.7967 11.8095 18.8526C11.7536 18.9083 11.6781 18.9397 11.5991 18.9397C11.5202 18.9397 11.4446 18.9083 11.3888 18.8526C11.3331 18.7967 11.3017 18.7212 11.3017 18.6422V12.3966H5.05603C4.97715 12.3966 4.90151 12.3652 4.84574 12.3095C4.78996 12.2536 4.75862 12.1781 4.75862 12.0991C4.75862 12.0202 4.78996 11.9446 4.84574 11.8888C4.90151 11.8331 4.97715 11.8017 5.05603 11.8017H11.3017V5.55603C11.3017 5.47715 11.3331 5.40151 11.3888 5.34574C11.4446 5.28996 11.5202 5.25862 11.5991 5.25862C11.6781 5.25862 11.7536 5.28996 11.8095 5.34574C11.8652 5.40151 11.8966 5.47715 11.8966 5.55603V11.8017H18.1422C18.2212 11.8017 18.2967 11.8331 18.3526 11.8888C18.4083 11.9446 18.4397 12.0202 18.4397 12.0991Z" fill="black"/>
</g>
<defs>
<clipPath id="clip0_0_169">
<rect width="23" height="23" fill="white" transform="translate(0 0.5)"/>
</clipPath>
</defs>
</svg>
