<svg width="23" height="23" viewBox="0 0 23 23" fill="none" xmlns="http://www.w3.org/2000/svg">
<g clip-path="url(#clip0_35_101)">
<path d="M11.5 22C17.299 22 22 17.299 22 11.5C22 5.70101 17.299 1 11.5 1C5.70101 1 1 5.70101 1 11.5C1 17.299 5.70101 22 11.5 22Z" stroke="black" stroke-width="0.7"/>
<path d="M18.4396 11.5992C18.4396 11.6781 18.4083 11.7537 18.3526 11.8095C18.2967 11.8653 18.2211 11.8966 18.1422 11.8966H11.8965V18.1423C11.8965 18.2212 11.8652 18.2968 11.8095 18.3526C11.7536 18.4084 11.678 18.4397 11.5991 18.4397C11.5202 18.4397 11.4446 18.4084 11.3888 18.3526C11.333 18.2968 11.3017 18.2212 11.3017 18.1423V11.8966H5.05602C4.97714 11.8966 4.90149 11.8653 4.84572 11.8095C4.78994 11.7537 4.75861 11.6781 4.75861 11.5992C4.75861 11.5203 4.78994 11.4447 4.84572 11.3889C4.90149 11.3331 4.97714 11.3018 5.05602 11.3018H11.3017V5.05608C11.3017 4.9772 11.333 4.90155 11.3888 4.84578C11.4446 4.79 11.5202 4.75867 11.5991 4.75867C11.678 4.75867 11.7536 4.79 11.8095 4.84578C11.8652 4.90155 11.8965 4.9772 11.8965 5.05608V11.3018H18.1422C18.2211 11.3018 18.2967 11.3331 18.3526 11.3889C18.4083 11.4447 18.4396 11.5203 18.4396 11.5992Z" fill="black"/>
</g>
<defs>
<clipPath id="clip0_35_101">
<rect width="23" height="23" fill="white"/>
</clipPath>
</defs>
</svg>
