<svg width="9" height="10" viewBox="0 0 9 10" fill="none" xmlns="http://www.w3.org/2000/svg">
<path d="M4.5 8.75C3.98125 8.75 3.49375 8.6515 3.0375 8.4545C2.58125 8.2575 2.18438 7.99038 1.84688 7.65313C1.50938 7.31563 1.24225 6.91875 1.0455 6.4625C0.84875 6.00625 0.75025 5.51875 0.75 5C0.75 4.48125 0.8485 3.99375 1.0455 3.5375C1.2425 3.08125 1.50963 2.68438 1.84688 2.34688C2.18438 2.00938 2.58125 1.74225 3.0375 1.5455C3.49375 1.34875 3.98125 1.25025 4.5 1.25C5.01875 1.25 5.50625 1.3485 5.9625 1.5455C6.41875 1.7425 6.81563 2.00963 7.15313 2.34688C7.49063 2.68438 7.75787 3.08125 7.95487 3.5375C8.15187 3.99375 8.25025 4.48125 8.25 5C8.25 5.51875 8.1515 6.00625 7.9545 6.4625C7.7575 6.91875 7.49038 7.31563 7.15313 7.65313C6.81563 7.99063 6.41875 8.25787 5.9625 8.45487C5.50625 8.65187 5.01875 8.75025 4.5 8.75Z" fill="#DBA366"/>
</svg>
